<svg width="88" height="88" viewBox="0 0 88 88" fill="none" xmlns="http://www.w3.org/2000/svg">
<rect width="88" height="88" rx="44" fill="#1A1A1A"/>
<path d="M45.6834 28.8666L55.5168 33.2332C58.3501 34.4832 58.3501 36.5499 55.5168 37.7999L45.6834 42.1666C44.5668 42.6666 42.7334 42.6666 41.6168 42.1666L31.7834 37.7999C28.9501 36.5499 28.9501 34.4832 31.7834 33.2332L41.6168 28.8666C42.7334 28.3666 44.5668 28.3666 45.6834 28.8666Z" stroke="#E9B30B" stroke-width="2.5" stroke-linecap="round" stroke-linejoin="round"/>
<path d="M29 42.3333C29 43.7333 30.05 45.35 31.3333 45.9166L42.65 50.95C43.5167 51.3333 44.5 51.3333 45.35 50.95L56.6667 45.9166C57.95 45.35 59 43.7333 59 42.3333" stroke="#E9B30B" stroke-width="2.5" stroke-linecap="round" stroke-linejoin="round"/>
<path d="M29 50.6667C29 52.2167 29.9167 53.6167 31.3333 54.25L42.65 59.2834C43.5167 59.6667 44.5 59.6667 45.35 59.2834L56.6667 54.25C58.0833 53.6167 59 52.2167 59 50.6667" stroke="#E9B30B" stroke-width="2.5" stroke-linecap="round" stroke-linejoin="round"/>
</svg>
