<svg width="88" height="88" viewBox="0 0 88 88" fill="none" xmlns="http://www.w3.org/2000/svg">
<rect width="88" height="88" rx="44" fill="#1A1A1A"/>
<path d="M41.9169 61.5H46.1169C47.7169 61.5 48.7502 60.3667 48.4502 58.9834L47.7669 55.9668H40.2669L39.5835 58.9834C39.2835 60.2834 40.4169 61.5 41.9169 61.5Z" stroke="#E9B30B" stroke-width="2.5" stroke-linecap="round" stroke-linejoin="round"/>
<path d="M47.7668 55.9501L50.6501 53.3834C52.2668 51.9501 52.3334 50.95 51.0501 49.3333L45.9667 42.8834C44.9001 41.5334 43.1501 41.5334 42.0834 42.8834L37.0001 49.3333C35.7168 50.95 35.7167 52.0001 37.4001 53.3834L40.2834 55.9501" stroke="#E9B30B" stroke-width="2.5" stroke-linecap="round" stroke-linejoin="round"/>
<path d="M44.0166 42.5334V46.7501" stroke="#E9B30B" stroke-width="2.5" stroke-linecap="round" stroke-linejoin="round"/>
<path d="M44.8668 32.3333H43.2001C42.2834 32.3333 41.5334 31.5833 41.5334 30.6666V28.9999C41.5334 28.0833 42.2834 27.3333 43.2001 27.3333H44.8668C45.7834 27.3333 46.5334 28.0833 46.5334 28.9999V30.6666C46.5334 31.5833 45.7834 32.3333 44.8668 32.3333Z" stroke="#E9B30B" stroke-width="2.5" stroke-linecap="round" stroke-linejoin="round"/>
<path d="M29.4501 47.6166H31.1168C32.0334 47.6166 32.7834 46.8666 32.7834 45.9499V44.2832C32.7834 43.3666 32.0334 42.6165 31.1168 42.6165H29.4501C28.5334 42.6165 27.7834 43.3666 27.7834 44.2832V45.9499C27.7834 46.8666 28.5334 47.6166 29.4501 47.6166Z" stroke="#E9B30B" stroke-width="2.5" stroke-linecap="round" stroke-linejoin="round"/>
<path d="M58.5499 47.6166H56.8832C55.9666 47.6166 55.2166 46.8666 55.2166 45.9499V44.2832C55.2166 43.3666 55.9666 42.6165 56.8832 42.6165H58.5499C59.4666 42.6165 60.2166 43.3666 60.2166 44.2832V45.9499C60.2166 46.8666 59.4666 47.6166 58.5499 47.6166Z" stroke="#E9B30B" stroke-width="2.5" stroke-linecap="round" stroke-linejoin="round"/>
<path d="M41.5333 29.9333C35.1833 30.6833 30.25 36.0667 30.25 42.6167" stroke="#E9B30B" stroke-width="2.5" stroke-linecap="round" stroke-linejoin="round"/>
<path d="M57.7501 42.6167C57.7501 36.0833 52.8501 30.7167 46.5334 29.9333" stroke="#E9B30B" stroke-width="2.5" stroke-linecap="round" stroke-linejoin="round"/>
</svg>
