<svg width="88" height="88" viewBox="0 0 88 88" fill="none" xmlns="http://www.w3.org/2000/svg">
<rect width="88" height="88" rx="44" fill="#1A1A1A"/>
<path d="M40.6666 52.2501H34.3499C28.7333 52.2501 27.3333 50.8501 27.3333 45.2334V35.2334C27.3333 29.6167 28.7333 28.2167 34.3499 28.2167H51.8999C57.5166 28.2167 58.9166 29.6167 58.9166 35.2334" stroke="#E9B30B" stroke-width="2.5" stroke-linecap="round" stroke-linejoin="round"/>
<path d="M40.6667 59.7833V52.2499" stroke="#E9B30B" stroke-width="2.5" stroke-linecap="round" stroke-linejoin="round"/>
<path d="M27.3333 45.5833H40.6666" stroke="#E9B30B" stroke-width="2.5" stroke-linecap="round" stroke-linejoin="round"/>
<path d="M35.2334 59.7833H40.6667" stroke="#E9B30B" stroke-width="2.5" stroke-linecap="round" stroke-linejoin="round"/>
<path d="M60.6666 45.3335V54.8501C60.6666 58.8001 59.6833 59.7835 55.7333 59.7835H49.8166C45.8666 59.7835 44.8833 58.8001 44.8833 54.8501V45.3335C44.8833 41.3835 45.8666 40.4001 49.8166 40.4001H55.7333C59.6833 40.4001 60.6666 41.3835 60.6666 45.3335Z" stroke="#E9B30B" stroke-width="2.5" stroke-linecap="round" stroke-linejoin="round"/>
<path d="M52.7409 54.4166H52.7559" stroke="#E9B30B" stroke-width="3.33333" stroke-linecap="round" stroke-linejoin="round"/>
</svg>
