<svg width="88" height="88" viewBox="0 0 88 88" fill="none" xmlns="http://www.w3.org/2000/svg">
<rect width="88" height="88" rx="44" fill="#E9B30B"/>
<path d="M39.0001 40.6667C40.841 40.6667 42.3334 39.1743 42.3334 37.3333C42.3334 35.4924 40.841 34 39.0001 34C37.1591 34 35.6667 35.4924 35.6667 37.3333C35.6667 39.1743 37.1591 40.6667 39.0001 40.6667Z" stroke="#0D0D0D" stroke-width="2.5" stroke-linecap="round" stroke-linejoin="round"/>
<path d="M45.6666 27.3333H38.9999C30.6666 27.3333 27.3333 30.6666 27.3333 39V49C27.3333 57.3333 30.6666 60.6666 38.9999 60.6666H48.9999C57.3333 60.6666 60.6666 57.3333 60.6666 49V40.6666" stroke="#0D0D0D" stroke-width="2.5" stroke-linecap="round" stroke-linejoin="round"/>
<path d="M55.8999 28.3165L49.8499 34.3665C49.6166 34.5999 49.3832 35.0499 49.3499 35.3832L49.0166 37.6999C48.8999 38.5332 49.4832 39.1165 50.3166 38.9999L52.6332 38.6665C52.9499 38.6165 53.4166 38.3999 53.6499 38.1665L59.6999 32.1165C60.7499 31.0665 61.2332 29.8665 59.6999 28.3332C58.1499 26.7665 56.9499 27.2665 55.8999 28.3165Z" stroke="#0D0D0D" stroke-width="2.5" stroke-miterlimit="10" stroke-linecap="round" stroke-linejoin="round"/>
<path d="M55.0334 29.1835C55.5501 31.0169 56.9834 32.4502 58.8168 32.9669" stroke="#0D0D0D" stroke-width="2.5" stroke-miterlimit="10" stroke-linecap="round" stroke-linejoin="round"/>
<path d="M28.45 55.5834L36.6666 50.0667C37.9833 49.1834 39.8833 49.2834 41.0666 50.3001L41.6166 50.7834C42.9166 51.9001 45.0166 51.9001 46.3166 50.7834L53.25 44.8334C54.55 43.7167 56.65 43.7167 57.95 44.8334L60.6666 47.1667" stroke="#0D0D0D" stroke-width="2.5" stroke-linecap="round" stroke-linejoin="round"/>
</svg>
