<svg width="88" height="88" viewBox="0 0 88 88" fill="none" xmlns="http://www.w3.org/2000/svg">
<rect width="88" height="88" rx="44" fill="#1A1A1A"/>
<path d="M48.9999 60.6666H38.9999C30.6666 60.6666 27.3333 57.3333 27.3333 49V39C27.3333 30.6666 30.6666 27.3333 38.9999 27.3333H48.9999C57.3333 27.3333 60.6666 30.6666 60.6666 39V49C60.6666 57.3333 57.3333 60.6666 48.9999 60.6666Z" stroke="#E9B30B" stroke-width="2.5" stroke-linecap="round" stroke-linejoin="round"/>
<path d="M36.5 50.6666V37.3333H39.8333C41.6667 37.3333 43.1667 38.8333 43.1667 40.6666C43.1667 42.5 41.6667 44 39.8333 44H36.5" stroke="#E9B30B" stroke-width="2.5" stroke-miterlimit="10" stroke-linecap="round" stroke-linejoin="round"/>
<path d="M51.4999 42.3333H49.3333C48.1666 42.3333 47.3333 43.3333 47.3333 44.3333C47.3333 45.5 48.3333 46.3333 49.3333 46.3333C50.4999 46.3333 51.3333 47.3333 51.3333 48.3333C51.3333 49.5 50.3333 50.3333 49.3333 50.3333H47.3333" stroke="#E9B30B" stroke-width="2.5" stroke-miterlimit="10" stroke-linecap="round" stroke-linejoin="round"/>
</svg>
