<svg width="88" height="88" viewBox="0 0 88 88" fill="none" xmlns="http://www.w3.org/2000/svg">
<rect width="88" height="88" rx="44" fill="#E9B30B"/>
<path d="M38.9999 60.6666H48.9999C57.3333 60.6666 60.6666 57.3333 60.6666 49V39C60.6666 30.6666 57.3333 27.3333 48.9999 27.3333H38.9999C30.6666 27.3333 27.3333 30.6666 27.3333 39V49C27.3333 57.3333 30.6666 60.6666 38.9999 60.6666Z" stroke="#0D0D0D" stroke-width="2.5" stroke-linecap="round" stroke-linejoin="round"/>
<path d="M35.4832 28.2V59.8" stroke="#0D0D0D" stroke-width="2.5" stroke-linecap="round" stroke-linejoin="round"/>
<path d="M52.1499 28.2V59.8" stroke="#0D0D0D" stroke-width="2.5" stroke-linecap="round" stroke-linejoin="round"/>
<path d="M35.4834 35.6166H28.2334" stroke="#0D0D0D" stroke-width="2.5" stroke-linecap="round" stroke-linejoin="round"/>
<path d="M35.4833 44H27.3833" stroke="#0D0D0D" stroke-width="2.5" stroke-linecap="round" stroke-linejoin="round"/>
<path d="M35.4833 52.2833H28.1333" stroke="#0D0D0D" stroke-width="2.5" stroke-linecap="round" stroke-linejoin="round"/>
<path d="M60.4834 35.6166H53.2334" stroke="#0D0D0D" stroke-width="2.5" stroke-linecap="round" stroke-linejoin="round"/>
<path d="M60.4833 44H52.3833" stroke="#0D0D0D" stroke-width="2.5" stroke-linecap="round" stroke-linejoin="round"/>
<path d="M52.2833 44H33.95" stroke="#0D0D0D" stroke-width="2.5" stroke-linecap="round" stroke-linejoin="round"/>
<path d="M60.4833 52.2833H53.1333" stroke="#0D0D0D" stroke-width="2.5" stroke-linecap="round" stroke-linejoin="round"/>
</svg>
