<svg width="72" height="84" viewBox="0 0 72 84" fill="none" xmlns="http://www.w3.org/2000/svg">
<path fill-rule="evenodd" clip-rule="evenodd" d="M14.8588 3.02112C13.1548 12.2618 15.4367 21.5884 19.9144 30.1966C26.6769 43.1965 38.4468 54.562 49.2274 61.5552C56.0024 65.951 62.0554 66.6601 69.5829 69.4767C69.8877 69.5909 70.0424 69.9304 69.9282 70.2352C69.8152 70.5391 69.4745 70.6947 69.1708 70.5796C61.5553 67.7301 55.4404 66.9902 48.5857 62.5434C37.655 55.4527 25.7273 43.922 18.8693 30.7401C14.2679 21.8946 11.9492 12.3041 13.7001 2.80768C13.759 2.4877 14.0651 2.27602 14.3851 2.33491C14.7051 2.39379 14.9177 2.70114 14.8588 3.02112Z" fill="#C67806"/>
<path fill-rule="evenodd" clip-rule="evenodd" d="M70.6905 71.4965C70.663 71.4879 70.4809 71.4266 70.3232 71.3917C69.6701 71.2427 68.5034 71.0865 67.0198 70.9766C62.0427 70.6138 53.5162 70.7823 48.7786 73.8425C48.5053 74.019 48.1412 73.9399 47.9647 73.6666C47.7882 73.3932 47.8652 73.0288 48.1385 72.8523C53.0679 69.6682 61.9275 69.4237 67.1059 69.8024C67.7995 69.8536 68.4284 69.914 68.9718 69.9809C67.6984 68.8961 66.3997 67.8463 65.0858 66.8084C61.3021 63.8219 58.6475 60.4546 56.4731 56.1123C56.3271 55.8225 56.4453 55.4674 56.736 55.3227C57.0258 55.1768 57.3809 55.295 57.5256 55.5856C59.6192 59.7647 62.1733 63.0087 65.8149 65.8837C67.5317 67.2403 69.2247 68.6194 70.8684 70.0635C71.032 70.2072 71.453 70.5853 71.5037 70.6476C71.7931 71.0024 71.5704 71.3205 71.5177 71.3882C71.4926 71.4211 71.1563 71.8113 70.6905 71.4965ZM71.3144 70.4976C71.3271 70.5065 71.3409 70.5146 71.3545 70.5247C71.3439 70.516 71.3301 70.508 71.3144 70.4976Z" fill="#C67806"/>
</svg>
