<svg width="20" height="20" viewBox="0 0 20 20" fill="none" xmlns="http://www.w3.org/2000/svg">
<path d="M14.5178 0H5.48318C2.46002 0 0.000488281 2.45953 0.000488281 5.48273V14.5173C0.000488281 17.5405 2.46002 20 5.48318 20H14.5178C17.541 20 20.0005 17.5405 20.0005 14.5173V5.48273C20.0005 2.45953 17.541 0 14.5178 0ZM18.8194 14.5173C18.8194 16.8892 16.8897 18.8189 14.5178 18.8189H5.48318C3.11127 18.8189 1.18158 16.8893 1.18158 14.5173V5.48273C1.18158 3.11078 3.11127 1.18109 5.48318 1.18109H14.5178C16.8897 1.18109 18.8194 3.11078 18.8194 5.48273V14.5173Z" fill="white"/>
<path d="M10.0002 4.51465C6.97547 4.51465 4.51465 6.97547 4.51465 10.0002C4.51465 13.025 6.97543 15.4858 10.0002 15.4858C13.025 15.4858 15.4859 13.025 15.4859 10.0002C15.4859 6.97543 13.025 4.51465 10.0002 4.51465ZM10.0002 14.3048C7.62672 14.3048 5.6957 12.3737 5.6957 10.0002C5.6957 7.62668 7.62672 5.69566 10.0002 5.69566C12.3738 5.69566 14.3048 7.62672 14.3048 10.0002C14.3048 12.3738 12.3738 14.3048 10.0002 14.3048Z" fill="white"/>
<path d="M15.8151 2.51953C14.8961 2.51953 14.1484 3.26723 14.1484 4.18621C14.1484 5.1052 14.8961 5.85285 15.8151 5.85285C16.7341 5.85285 17.4817 5.10516 17.4817 4.18617C17.4817 3.26719 16.7341 2.51953 15.8151 2.51953ZM15.8151 4.67172C15.5474 4.67172 15.3295 4.45391 15.3295 4.18617C15.3295 3.91844 15.5474 3.70063 15.8151 3.70063C16.0828 3.70063 16.3006 3.91848 16.3006 4.18617C16.3006 4.45387 16.0828 4.67172 15.8151 4.67172Z" fill="white"/>
</svg>
