<svg width="20" height="18" viewBox="0 0 20 18" fill="none" xmlns="http://www.w3.org/2000/svg">
<path d="M20.0005 2.79875C19.2567 3.125 18.4642 3.34125 17.638 3.44625C18.488 2.93875 19.1367 2.14125 19.4417 1.18C18.6492 1.6525 17.7742 1.98625 16.8417 2.1725C16.0892 1.37125 15.0167 0.875 13.8467 0.875C11.5767 0.875 9.74924 2.7175 9.74924 4.97625C9.74924 5.30125 9.77674 5.61375 9.84424 5.91125C6.43549 5.745 3.41924 4.11125 1.39299 1.6225C1.03924 2.23625 0.831738 2.93875 0.831738 3.695C0.831738 5.115 1.56299 6.37375 2.65299 7.1025C1.99424 7.09 1.34799 6.89875 0.800488 6.5975C0.800488 6.61 0.800488 6.62625 0.800488 6.6425C0.800488 8.635 2.22174 10.29 4.08549 10.6712C3.75174 10.7625 3.38799 10.8062 3.01049 10.8062C2.74799 10.8062 2.48299 10.7912 2.23424 10.7362C2.76549 12.36 4.27299 13.5537 6.06549 13.5925C4.67049 14.6837 2.89924 15.3412 0.981738 15.3412C0.645488 15.3412 0.322988 15.3262 0.000488281 15.285C1.81674 16.4562 3.96924 17.125 6.29049 17.125C13.8355 17.125 17.9605 10.875 17.9605 5.4575C17.9605 5.27625 17.9542 5.10125 17.9455 4.9275C18.7592 4.35 19.443 3.62875 20.0005 2.79875Z" fill="white"/>
</svg>
