<svg width="20" height="20" viewBox="0 0 20 20" fill="none" xmlns="http://www.w3.org/2000/svg">
<path fill-rule="evenodd" clip-rule="evenodd" d="M16.6119 3.34984C14.8578 1.59363 12.5249 0.62603 10.0396 0.625C4.91834 0.625 0.750404 4.79282 0.748344 9.91543C0.747658 11.553 1.17544 13.1515 1.98854 14.5605L0.67041 19.375L5.59583 18.083C6.95299 18.8233 8.48089 19.2134 10.0358 19.2139H10.0397C15.1603 19.2139 19.3287 15.0457 19.3307 9.92287C19.3317 7.44019 18.3662 5.10593 16.6119 3.34984ZM10.0396 17.6448H10.0364C8.65072 17.6442 7.29173 17.2718 6.1059 16.5683L5.82403 16.4009L2.90121 17.1677L3.68135 14.318L3.49767 14.0258C2.72462 12.7962 2.31641 11.3751 2.3171 9.916C2.3187 5.65823 5.78306 2.19421 10.0427 2.19421C12.1053 2.1949 14.0443 2.99919 15.5023 4.45889C16.9603 5.91858 17.7627 7.85881 17.762 9.92229C17.7602 14.1804 14.2961 17.6448 10.0396 17.6448V17.6448ZM14.2755 11.861C14.0434 11.7448 12.902 11.1833 12.6891 11.1057C12.4765 11.0283 12.3215 10.9897 12.1669 11.222C12.0121 11.4543 11.5672 11.9773 11.4317 12.1321C11.2962 12.2871 11.161 12.3066 10.9288 12.1903C10.6966 12.0741 9.94859 11.8289 9.06179 11.038C8.37171 10.4224 7.90582 9.66217 7.77032 9.42986C7.63506 9.19731 7.76918 9.08379 7.87218 8.95607C8.12349 8.64399 8.37514 8.3168 8.45251 8.16196C8.52998 8.00701 8.49119 7.8714 8.43305 7.75524C8.37514 7.63908 7.91086 6.49639 7.71745 6.03142C7.52885 5.57892 7.33762 5.64003 7.19503 5.63293C7.05976 5.62618 6.90492 5.62481 6.75008 5.62481C6.59536 5.62481 6.34382 5.68283 6.13096 5.91537C5.91821 6.1478 5.31854 6.70937 5.31854 7.85206C5.31854 8.99475 6.15041 10.0986 6.26646 10.2536C6.3825 10.4086 7.90353 12.7534 10.2323 13.7589C10.7862 13.9983 11.2185 14.141 11.5558 14.248C12.112 14.4247 12.6179 14.3998 13.018 14.3401C13.4641 14.2733 14.3914 13.7784 14.5851 13.2362C14.7785 12.6938 14.7785 12.2291 14.7203 12.1321C14.6624 12.0353 14.5076 11.9773 14.2755 11.861V11.861Z" fill="white"/>
</svg>
